#!OML:ASF F:\VICON\USERDATA\INSTALL\rory3\rory3.ASF
:FULLY-SPECIFIED
:DEGREES
189
root 0.0914092 16.6141 -10.349 9.6569 1.80024 4.43412
lowerback 26.5988 -0.33181 -1.78124
upperback 3.26922 -0.842391 0.690942
thorax -11.1106 -0.288512 2.10342
lowerneck -19.9166 -2.41427 -7.43599
upperneck -23.0917 -0.973938 7.46103
head -3.85727 -0.100677 3.62412
rclavicle -3.18055e-015 9.54166e-015
rhumerus 41.358 14.4836 -61.1041
rradius 55.6676
rwrist 7.72917
rhand -29.7201 0.541696
rfingers 7.12502
rthumb -3.04717 -29.4163
lclavicle -3.18055e-015 9.54166e-015
lhumerus 44.0614 -11.477 57.8691
lradius 78.543
lwrist 3.69378
lhand -34.5971 17.9518
lfingers 7.12502
lthumb -7.75589 47.7896
rfemur -30.7316 2.07875 14.5438
rtibia 73.7529
rfoot -28.6121 -10.926
rtoes -23.7302
lfemur -29.6327 1.05148 -23.744
ltibia 68.2623
lfoot -26.7717 -3.9284
ltoes -15.6416
190
root 0.105996 16.8836 -10.081 9.37601 1.49387 4.66199
lowerback 25.483 -0.0898188 -1.98
upperback 2.94413 -0.574866 0.658751
thorax -10.9042 -0.159218 2.07494
lowerneck -20.3596 -2.52136 -7.75276
upperneck -22.4058 -1.05663 7.41471
head -3.57707 -0.106254 3.64594
rclavicle 2.78299e-015 -6.36111e-015
rhumerus 42.1424 13.9481 -59.5483
rradius 57.0254
rwrist 8.07315
rhand -29.4623 0.396737
rfingers 7.12502
rthumb -2.79818 -29.5647
lclavicle 2.78299e-015 -6.36111e-015
lhumerus 44.6628 -10.1966 57.3916
lradius 80.2431
lwrist 3.59552
lhand -34.6189 17.8065
lfingers 7.12502
lthumb -7.77695 47.6435
rfemur -27.9166 2.071 14.2077
rtibia 70.2433
rfoot -26.823 -10.4584
rtoes -24.1127
lfemur -26.6289 1.4176 -23.9481
ltibia 64.5218
lfoot -24.8483 -4.10885
ltoes -16.3786
191
root 0.121364 17.1709 -9.79382 9.05952 1.19377 4.67147
lowerback 24.3933 0.0899674 -1.95666
upperback 2.44283 -0.323154 0.639349
thorax -10.9056 -0.0410801 1.94646
lowerneck -20.4205 -2.50008 -7.87112
upperneck -21.6833 -1.03766 7.30273
head -3.34459 -0.0846591 3.61697
rclavicle 1.59028e-015 -3.97569e-015
rhumerus 42.4298 13.8053 -57.9988
rradius 57.9819
rwrist 7.5585
rhand -29.8913 0.756886
rfingers 7.12502
rthumb -3.21245 -29.1987
lclavicle 1.59028e-015 -3.97569e-015
lhumerus 44.7458 -9.09047 56.8039
lradius 81.4314
lwrist 3.69419
lhand -34.5499 17.7847
lfingers 7.12502
lthumb -7.71036 47.6241
rfemur -24.881 2.17346 14.1208
rtibia 66.3969
rfoot -24.6258 -9.9353
rtoes -23.9371
lfemur -23.358 1.88355 -23.9053
ltibia 60.4324
lfoot -22.7452 -4.16607
ltoes -17.4312
192
root 0.132362 17.4673 -9.48239 8.8354 0.898493 4.58727
lowerback 22.9971 0.282406 -2.00685
upperback 1.82986 -0.0528529 0.739952
thorax -10.8577 0.09343 1.99172
lowerneck -20.2892 -2.46748 -8.01745
upperneck -20.8314 -1.02574 7.13141
head -3.0984 -0.0699454 3.57232
rclavicle 1.19271e-015 -7.95139e-016
rhumerus 42.5565 14.0536 -56.2038
rradius 58.2965
rwrist 6.64359
rhand -30.5071 1.17288
rfingers 7.12502
rthumb -3.80717 -28.7729
lclavicle 1.19271e-015 -7.95139e-016
lhumerus 44.4987 -8.24568 56.2659
lradius 82.0136
lwrist 4.02912
lhand -34.9468 17.6557
lfingers 7.12502
lthumb -8.09345 47.4808
rfemur -21.7199 2.4449 14.1517
rtibia 62.233
rfoot -22.0549 -9.3064
rtoes -22.742
lfemur -19.9434 2.36254 -23.7106
ltibia 55.9891
lfoot -20.0261 -4.40569
ltoes -17.4075
193
root 0.14611 17.7829 -9.14007 8.60276 0.572533 4.50504
lowerback 21.1661 0.443142 -2.08295
upperback 1.3136 0.187011 0.885099
thorax -10.4475 0.212021 2.11352
lowerneck -20.4121 -2.52324 -8.31012
upperneck -19.5684 -1.0899 7.04492
head -2.68555 -0.085276 3.57054
rclavicle 1.98785e-015 4.77083e-015
rhumerus 42.7917 14.5567 -54.4355
rradius 57.9329
rwrist 5.84648
rhand -30.6875 1.46052
rfingers 7.12502
rthumb -3.98138 -28.482
lclavicle 1.98785e-015 4.77083e-015
lhumerus 44.2579 -7.55794 55.8474
lradius 81.8811
lwrist 4.4517
lhand -35.3491 17.5601
lfingers 7.12502
lthumb -8.48166 47.3698
rfemur -18.2779 2.83567 14.1703
rtibia 57.6463
rfoot -19.1392 -8.93698
rtoes -22.3844
lfemur -16.2788 2.69889 -23.5406
ltibia 51.1457
lfoot -16.5231 -4.46613
ltoes -17.4694
194
root 0.158242 18.1199 -8.77665 8.35639 0.202487 4.1524
lowerback 19.1816 0.437777 -1.53101
upperback 0.768622 0.322104 0.751823
thorax -9.9565 0.244865 1.60734
lowerneck -20.7858 -2.53891 -8.37036
upperneck -17.861 -1.09877 7.34603
head -2.09991 -0.0912233 3.65032
rclavicle 7.7526e-015 7.95139e-016
rhumerus 42.8646 15.2093 -53.5054
rradius 56.98
rwrist 5.64388
rhand -29.8706 1.33335
rfingers 7.12502
rthumb -3.19253 -28.6225
lclavicle 7.7526e-015 7.95139e-016
lhumerus 43.9786 -7.30502 55.0425
lradius 81.0916
lwrist 4.57572
lhand -35.324 17.5831
lfingers 7.12502
lthumb -8.45742 47.3938
rfemur -14.6762 3.54849 14.5505
rtibia 52.6315
rfoot -15.3383 -9.02507
rtoes -22.6982
lfemur -12.4926 3.0036 -23.0973
ltibia 45.9637
lfoot -12.5274 -4.0143
ltoes -19.424
195
root 0.160186 18.4694 -8.40053 8.2205 -0.103543 3.5917
lowerback 17.0072 0.406366 -0.765119
upperback 0.0734736 0.445953 0.603866
thorax -9.50076 0.264917 0.978438
lowerneck -20.67 -2.52371 -8.4047
upperneck -16.1267 -1.11064 7.79683
head -1.569 -0.106066 3.77509
rclavicle 9.74045e-015 -1.11319e-014
rhumerus 42.5793 16.0979 -52.9654
rradius 55.6906
rwrist 5.95858
rhand -29.0158 1.42919
rfingers 7.12502
rthumb -2.36694 -28.5374
lclavicle 9.74045e-015 -1.11319e-014
lhumerus 43.2851 -7.5976 54.2784
lradius 80.0314
lwrist 4.06382
lhand -34.7571 17.9106
lfingers 7.12502
lthumb -7.91031 47.7426
rfemur -11.0553 4.6194 15.2896
rtibia 47.2167
rfoot -10.8521 -9.59418
rtoes -22.4465
lfemur -8.68966 3.14853 -22.3892
ltibia 40.4538
lfoot -7.97443 -3.39114
ltoes -21.2684
196
root 0.153614 18.8319 -8.0119 8.28092 -0.301819 2.89753
lowerback 14.2805 0.441915 -0.112429
upperback -0.579858 0.626182 0.664408
thorax -8.66574 0.323469 0.640482
lowerneck -20.4876 -2.50806 -8.30505
upperneck -14.2153 -1.19778 7.8597
head -1.00207 -0.163823 3.75059
rclavicle 5.1684e-015 7.95139e-016
rhumerus 42.1153 16.9699 -52.4784
rradius 54.2042
rwrist 6.64645
rhand -28.9068 1.75086
rfingers 7.12502
rthumb -2.26167 -28.2169
lclavicle 5.1684e-015 7.95139e-016
lhumerus 42.4147 -8.09695 53.8442
lradius 78.8247
lwrist 3.27693
lhand -33.8118 18.0332
lfingers 7.12502
lthumb -6.99791 47.8975
rfemur -7.57003 6.08519 16.3281
rtibia 41.5005
rfoot -5.62197 -10.9369
rtoes -21.8015
lfemur -5.03868 2.92774 -21.524
ltibia 34.6332
lfoot -2.50712 -2.60981
ltoes -21.8412
197
root 0.142713 19.2096 -7.61092 8.42229 -0.44553 2.16555
lowerback 11.5289 0.504845 0.35441
upperback -1.46903 0.794002 0.881988
thorax -8.05293 0.391679 0.590401
lowerneck -20.0972 -2.3032 -7.9958
upperneck -11.8245 -1.13471 7.47476
head -0.34455 -0.163157 3.55788
rclavicle 3.97569e-015 -7.15625e-015
rhumerus 41.1337 18.2218 -52.0352
rradius 52.7029
rwrist 7.50526
rhand -28.1186 1.30524
rfingers 7.12502
rthumb -1.50048 -28.6692
lclavicle 3.97569e-015 -7.15625e-015
lhumerus 40.9782 -8.91186 53.6895
lradius 77.4472
lwrist 2.49893
lhand -32.8975 17.9146
lfingers 7.12502
lthumb -6.11525 47.8063
rfemur -4.14901 8.13519 17.5586
rtibia 35.634
rfoot -0.128655 -13.2539
rtoes -20.0079
lfemur -1.51645 1.935 -20.7252
ltibia 28.6004
lfoot 4.16778 -0.808606
ltoes -20.4091
198
root 0.136309 19.5955 -7.19205 8.55134 -0.554542 1.77715
lowerback 8.41635 0.686402 0.273251
upperback -2.31088 1.03392 1.24195
thorax -7.17586 0.524652 1.00103
lowerneck -19.1343 -2.15571 -8.00582
upperneck -9.41164 -1.14592 6.69179
head 0.314012 -0.205402 3.60054
rclavicle -1.49089e-015 -2.38542e-015
rhumerus 40.0294 19.5831 -50.8788
rradius 51.2168
rwrist 8.20324
rhand -26.4334 0.200986
rfingers 7.12502
rthumb 0.127199 -29.7787
lclavicle -1.49089e-015 -2.38542e-015
lhumerus 39.2535 -9.93334 54.1973
lradius 75.8935
lwrist 1.55341
lhand -32.7408 17.0345
lfingers 7.12502
lthumb -5.96399 46.9306
rfemur -0.804173 10.7068 18.5505
rtibia 29.9747
rfoot 4.91728 -17.4822
rtoes -15.9014
lfemur 2.0655 -0.207881 -20.571
ltibia 22.3498
lfoot 11.7736 3.53596
ltoes -17.2417
199
root 0.132478 19.9751 -6.76237 8.80374 -0.612234 1.49486
lowerback 4.78154 0.883012 0.452727
upperback -3.00832 1.28722 1.33403
thorax -5.82812 0.647768 1.00669
lowerneck -18.3113 -2.17094 -8.02405
upperneck -6.69561 -1.31426 6.35336
head 1.11363 -0.329423 3.481
rclavicle -1.66482e-014 3.18055e-015
rhumerus 38.904 20.6459 -49.9051
rradius 49.5153
rwrist 9.33324
rhand -25.0267 -0.541461
rfingers 7.12502
rthumb 1.48583 -30.516
lclavicle -1.66482e-014 3.18055e-015
lhumerus 37.7882 -11.1315 54.5591
lradius 74.1156
lwrist 0.500728
lhand -33.263 16.1947
lfingers 7.12502
lthumb -6.4681 46.0759
rfemur 2.24246 14.1013 19.666
rtibia 24.8094
rfoot 9.19234 -24.7683
rtoes -8.93382
lfemur 5.48166 -3.59295 -20.8477
ltibia 16.2054
lfoot 18.7661 10.934
ltoes -13.8938
200
root 0.125379 20.3862 -6.32458 9.24043 -0.596618 1.22005
lowerback 0.905513 1.0321 0.970711
upperback -3.69179 1.45315 1.09595
thorax -4.31418 0.711451 0.51875
lowerneck -17.427 -2.13896 -7.79
upperneck -3.74221 -1.46113 6.5853
head 1.72583 -0.425426 3.18055
rclavicle -3.15571e-015 1.59028e-015
rhumerus 37.6139 21.5727 -49.5172
rradius 47.7537
rwrist 10.9291
rhand -23.6651 -0.110767
rfingers 7.12502
rthumb 2.8008 -30.0721
lclavicle -3.15571e-015 1.59028e-015
lhumerus 36.5055 -12.4138 54.3885
lradius 72.2788
lwrist -0.491195
lhand -32.8143 16.3869
lfingers 7.12502
lthumb -6.03489 46.281
rfemur 4.71481 18.1227 21.1102
rtibia 20.8674
rfoot 9.59608 -32.997
rtoes 5.52756
lfemur 8.59 -7.45084 -21.3209
ltibia 10.5667
lfoot 24.4957 19.4027
ltoes -1.45538
201
root 0.114 20.7846 -5.90807 9.79457 -0.633126 0.936488
lowerback -2.81179 1.23118 1.5405
upperback -4.45568 1.65051 0.728331
thorax -2.98202 0.791049 -0.110885
lowerneck -15.7461 -2.07215 -7.49218
upperneck -1.46833 -1.63701 6.78677
head 2.17913 -0.543578 3.17931
rclavicle 2.8215e-014 0
rhumerus 36.1791 22.6564 -49.2621
rradius 46.2011
rwrist 12.3832
rhand -22.75 0.376733
rfingers 7.12502
rthumb 3.68454 -29.5712
lclavicle 2.8215e-014 0
lhumerus 35.2419 -13.7918 53.9481
lradius 70.4016
lwrist -1.27775
lhand -31.4042 16.9098
lfingers 7.12502
lthumb -4.67343 46.8383
rfemur 6.20398 21.0256 22.3949
rtibia 18.5479
rfoot 8.93207 -38.2937
rtoes 17.137
lfemur 10.9301 -5.5798 -20.7902
ltibia 6.16146
lfoot 27.6542 23.2201
ltoes 10.9174
202
root 0.104336 21.1159 -5.54763 10.4157 -0.796188 0.698084
lowerback -6.02718 1.49383 1.88171
upperback -5.34089 1.9229 0.484408
thorax -2.08366 0.916371 -0.476249
lowerneck -13.7842 -2.00869 -7.46962
upperneck 0.410446 -1.77992 7.10912
head 2.46225 -0.64041 3.26672
rclavicle 7.95139e-015 -3.97569e-016
rhumerus 34.7962 24.0188 -48.8147
rradius 44.8321
rwrist 13.8288
rhand -21.8663 0.723702
rfingers 7.12502
rthumb 4.5379 -29.2077
lclavicle 7.95139e-015 -3.97569e-016
lhumerus 33.691 -15.1246 53.8584
lradius 68.6818
lwrist -1.81382
lhand -30.1743 17.2034
lfingers 7.12502
lthumb -3.48576 47.1546
rfemur 6.54239 18.2481 22.4422
rtibia 18.0572
rfoot 11.4338 -34.4192
rtoes 22.885
lfemur 11.8382 -3.54499 -20.5766
ltibia 5.47925
lfoot 26.9782 22.546
ltoes 8.29099
